<svg width="19" height="21" viewBox="0 0 19 21" fill="none" xmlns="http://www.w3.org/2000/svg">
<path fill-rule="evenodd" clip-rule="evenodd" d="M15.9464 0.676991C15.8791 0.479442 15.7516 0.307918 15.5819 0.186459C15.4121 0.0650006 15.2086 -0.000305176 14.9999 -0.000305176C14.7912 -0.000305176 14.5877 0.0650006 14.418 0.186459C14.2483 0.307918 14.1208 0.479442 14.0534 0.676991L13.9244 1.05499C13.7763 1.48885 13.5308 1.883 13.2066 2.20716C12.8824 2.53133 12.4883 2.77689 12.0544 2.92499L11.6774 3.05399C11.4802 3.12156 11.3091 3.24907 11.1879 3.41868C11.0667 3.5883 11.0016 3.79154 11.0016 3.99999C11.0016 4.20844 11.0667 4.41168 11.1879 4.5813C11.3091 4.75091 11.4802 4.87842 11.6774 4.94599L12.0554 5.07599C12.4892 5.22399 12.8833 5.4694 13.2074 5.79338C13.5316 6.11737 13.7772 6.51132 13.9254 6.94499L14.0534 7.32299C14.1208 7.52054 14.2483 7.69206 14.418 7.81352C14.5877 7.93498 14.7912 8.00029 14.9999 8.00029C15.2086 8.00029 15.4121 7.93498 15.5819 7.81352C15.7516 7.69206 15.8791 7.52054 15.9464 7.32299L16.0764 6.94499C16.2244 6.51124 16.4698 6.11716 16.7938 5.793C17.1178 5.46884 17.5117 5.22322 17.9454 5.07499L18.3234 4.94599C18.5206 4.87842 18.6918 4.75091 18.8129 4.5813C18.9341 4.41168 18.9993 4.20844 18.9993 3.99999C18.9993 3.79154 18.9341 3.5883 18.8129 3.41868C18.6918 3.24907 18.5206 3.12156 18.3234 3.05399L17.9454 2.92399C17.5117 2.77599 17.1176 2.53059 16.7934 2.2066C16.4693 1.88261 16.2237 1.48867 16.0754 1.05499L15.9464 0.676991ZM14.1964 3.99999C14.4951 3.76332 14.7631 3.49532 15.0004 3.19599C15.2371 3.49466 15.5051 3.76266 15.8044 3.99999C15.5067 4.23655 15.237 4.50629 15.0004 4.80399C14.7639 4.50629 14.4941 4.23655 14.1964 3.99999ZM8.00043 0.999991C6.67434 0.999991 5.40257 1.52678 4.46489 2.46446C3.52721 3.40214 3.00043 4.67391 3.00043 5.99999V11C3.00043 12.3261 3.52721 13.5978 4.46489 14.5355C5.40257 15.4732 6.67434 16 8.00043 16C9.32651 16 10.5983 15.4732 11.536 14.5355C12.4736 13.5978 13.0004 12.3261 13.0004 11V8.99999C13.0004 8.73477 12.8951 8.48042 12.7075 8.29288C12.52 8.10535 12.2656 7.99999 12.0004 7.99999C11.7352 7.99999 11.4809 8.10535 11.2933 8.29288C11.1058 8.48042 11.0004 8.73477 11.0004 8.99999V11C11.0004 11.7956 10.6844 12.5587 10.1217 13.1213C9.55914 13.6839 8.79607 14 8.00043 14C7.20478 14 6.44171 13.6839 5.8791 13.1213C5.3165 12.5587 5.00043 11.7956 5.00043 11V5.99999C5.00023 5.54203 5.10489 5.09011 5.30637 4.67885C5.50786 4.26759 5.80082 3.90792 6.16281 3.62741C6.5248 3.34689 6.94621 3.15297 7.39474 3.06051C7.84326 2.96805 8.30701 2.9795 8.75043 3.09399C8.8786 3.13009 9.01269 3.14023 9.14483 3.12382C9.27697 3.1074 9.4045 3.06476 9.51995 2.9984C9.63539 2.93203 9.73641 2.84328 9.81709 2.73735C9.89777 2.63141 9.95648 2.51043 9.98978 2.38151C10.0231 2.25258 10.0303 2.1183 10.011 1.98655C9.9917 1.85479 9.94629 1.72822 9.87742 1.61426C9.80855 1.50029 9.71762 1.40123 9.60995 1.32288C9.50228 1.24453 9.38005 1.18847 9.25043 1.15799C8.84209 1.05283 8.42209 0.999739 8.00043 0.999991ZM9.00043 18.938C10.7385 18.7185 12.3566 17.9349 13.6064 16.7073C14.8563 15.4796 15.6688 13.8759 15.9194 12.142C15.9571 11.8794 15.8889 11.6127 15.7299 11.4004C15.5708 11.1881 15.334 11.0477 15.0714 11.01C14.8089 10.9723 14.5421 11.0405 14.3298 11.1995C14.1175 11.3586 13.9771 11.5954 13.9394 11.858C13.7311 13.2844 13.0164 14.5882 11.9259 15.531C10.8354 16.4738 9.44198 16.9926 8.00043 16.9926C6.55888 16.9926 5.16548 16.4738 4.07498 15.531C2.98449 14.5882 2.26974 13.2844 2.06143 11.858C2.02376 11.5954 1.88334 11.3586 1.67105 11.1995C1.45876 11.0405 1.19199 10.9723 0.929425 11.01C0.666861 11.0477 0.430011 11.1881 0.27098 11.4004C0.111949 11.6127 0.0437644 11.8794 0.0814251 12.142C0.332028 13.8759 1.14458 15.4796 2.39441 16.7073C3.64425 17.9349 5.26233 18.7185 7.00043 18.938V20C7.00043 20.2652 7.10578 20.5196 7.29332 20.7071C7.48085 20.8946 7.73521 21 8.00043 21C8.26564 21 8.52 20.8946 8.70753 20.7071C8.89507 20.5196 9.00043 20.2652 9.00043 20V18.938Z" fill="white"/>
</svg>
