<svg width="70" height="60" viewBox="0 0 70 60" fill="#5F25B0" xmlns="http://www.w3.org/2000/svg">
<path d="M34.9999 15C31.8298 15 29.0106 16.5306 27.2158 18.906C26.8296 19.4172 26.6364 19.6728 26.6427 20.0183C26.6476 20.2852 26.8152 20.6219 27.0252 20.7867C27.297 21 27.6737 21 28.4271 21H41.5726C42.326 21 42.7027 21 42.9745 20.7867C43.1845 20.6219 43.3521 20.2852 43.357 20.0183C43.3633 19.6728 43.1701 19.4172 42.7839 18.906C40.9891 16.5306 38.1699 15 34.9999 15Z" stroke="#656565" stroke-width="2" stroke-linecap="round" stroke-linejoin="round"/>
<path d="M34.9999 12C37.4851 12 39.4999 9.98528 39.4999 7.5C39.4999 5.01472 37.4851 3 34.9999 3C32.5146 3 30.4999 5.01472 30.4999 7.5C30.4999 9.98528 32.5146 12 34.9999 12Z" stroke="#656565" stroke-width="2" stroke-linecap="round" stroke-linejoin="round"/>
<path d="M15.2056 49.6846V39.5028H18.646C19.4447 39.5028 20.0977 39.6469 20.6048 39.9353C21.1152 40.2203 21.493 40.6064 21.7383 41.0937C21.9835 41.5809 22.1062 42.1244 22.1062 42.7243C22.1062 43.3242 21.9835 43.8695 21.7383 44.36C21.4963 44.8505 21.1218 45.2416 20.6147 45.5333C20.1076 45.8216 19.458 45.9658 18.6658 45.9658H16.1999V44.8721H18.6261C19.1729 44.8721 19.6121 44.7776 19.9435 44.5887C20.275 44.3998 20.5153 44.1446 20.6644 43.8231C20.8169 43.4983 20.8931 43.132 20.8931 42.7243C20.8931 42.3167 20.8169 41.9521 20.6644 41.6306C20.5153 41.3091 20.2733 41.0572 19.9386 40.8749C19.6038 40.6893 19.1597 40.5965 18.6062 40.5965H16.4386V49.6846H15.2056ZM23.9332 49.6846V42.0482H25.0668V43.2016H25.1463C25.2855 42.8238 25.5374 42.5172 25.902 42.2819C26.2666 42.0465 26.6776 41.9289 27.1349 41.9289C27.2211 41.9289 27.3288 41.9305 27.4581 41.9339C27.5874 41.9372 27.6851 41.9421 27.7514 41.9488V43.142C27.7116 43.132 27.6205 43.1171 27.478 43.0972C27.3388 43.074 27.1913 43.0624 27.0355 43.0624C26.6643 43.0624 26.3329 43.1403 26.0412 43.2961C25.7528 43.4485 25.5241 43.6607 25.3551 43.9324C25.1894 44.2009 25.1065 44.5075 25.1065 44.8522V49.6846H23.9332ZM32.0121 49.8437C31.3227 49.8437 30.7178 49.6796 30.1974 49.3515C29.6804 49.0233 29.276 48.5643 28.9844 47.9743C28.696 47.3844 28.5518 46.695 28.5518 45.9062C28.5518 45.1107 28.696 44.4163 28.9844 43.8231C29.276 43.2298 29.6804 42.7691 30.1974 42.441C30.7178 42.1128 31.3227 41.9488 32.0121 41.9488C32.7015 41.9488 33.3047 42.1128 33.8217 42.441C34.3421 42.7691 34.7464 43.2298 35.0348 43.8231C35.3265 44.4163 35.4723 45.1107 35.4723 45.9062C35.4723 46.695 35.3265 47.3844 35.0348 47.9743C34.7464 48.5643 34.3421 49.0233 33.8217 49.3515C33.3047 49.6796 32.7015 49.8437 32.0121 49.8437ZM32.0121 48.7897C32.5357 48.7897 32.9666 48.6555 33.3047 48.387C33.6428 48.1185 33.893 47.7655 34.0554 47.328C34.2178 46.8905 34.299 46.4166 34.299 45.9062C34.299 45.3957 34.2178 44.9201 34.0554 44.4793C33.893 44.0385 33.6428 43.6822 33.3047 43.4104C32.9666 43.1386 32.5357 43.0028 32.0121 43.0028C31.4884 43.0028 31.0575 43.1386 30.7195 43.4104C30.3814 43.6822 30.1312 44.0385 29.9688 44.4793C29.8063 44.9201 29.7251 45.3957 29.7251 45.9062C29.7251 46.4166 29.8063 46.8905 29.9688 47.328C30.1312 47.7655 30.3814 48.1185 30.7195 48.387C31.0575 48.6555 31.4884 48.7897 32.0121 48.7897ZM40.6639 42.0482V43.0425H36.5474V42.0482H40.6639ZM37.7804 49.6846V40.9942C37.7804 40.5567 37.8831 40.1921 38.0886 39.9005C38.2941 39.6088 38.5609 39.3901 38.889 39.2442C39.2172 39.0984 39.5635 39.0255 39.9281 39.0255C40.2164 39.0255 40.4518 39.0487 40.6341 39.0951C40.8163 39.1415 40.9522 39.1846 41.0417 39.2243L40.7037 40.2385C40.644 40.2187 40.5611 40.1938 40.4551 40.164C40.3523 40.1341 40.2164 40.1192 40.0474 40.1192C39.6596 40.1192 39.3796 40.217 39.2072 40.4126C39.0382 40.6081 38.9537 40.8948 38.9537 41.2726V49.6846H37.7804ZM42.3082 49.6846V42.0482H43.4815V49.6846H42.3082ZM42.9048 40.7755C42.6761 40.7755 42.4789 40.6976 42.3132 40.5418C42.1508 40.386 42.0696 40.1988 42.0696 39.98C42.0696 39.7613 42.1508 39.574 42.3132 39.4182C42.4789 39.2625 42.6761 39.1846 42.9048 39.1846C43.1335 39.1846 43.3291 39.2625 43.4915 39.4182C43.6572 39.574 43.7401 39.7613 43.7401 39.98C43.7401 40.1988 43.6572 40.386 43.4915 40.5418C43.3291 40.6976 43.1335 40.7755 42.9048 40.7755ZM46.8038 39.5028V49.6846H45.6305V39.5028H46.8038ZM52.1545 49.8437C51.4187 49.8437 50.784 49.6813 50.2504 49.3564C49.7201 49.0283 49.3107 48.5709 49.0224 47.9843C48.7373 47.3943 48.5948 46.7082 48.5948 45.926C48.5948 45.1439 48.7373 44.4545 49.0224 43.8579C49.3107 43.258 49.7118 42.7906 50.2255 42.4559C50.7425 42.1178 51.3458 41.9488 52.0352 41.9488C52.4329 41.9488 52.8256 42.0151 53.2134 42.1476C53.6012 42.2802 53.9542 42.4956 54.2724 42.7939C54.5906 43.0889 54.8441 43.48 55.033 43.9672C55.2219 44.4545 55.3164 45.0544 55.3164 45.767V46.2641H49.43V45.2499H54.1232C54.1232 44.819 54.0371 44.4346 53.8647 44.0965C53.6957 43.7584 53.4537 43.4916 53.1388 43.2961C52.8273 43.1005 52.4594 43.0028 52.0352 43.0028C51.5678 43.0028 51.1635 43.1188 50.8221 43.3508C50.484 43.5795 50.2238 43.8778 50.0415 44.2456C49.8593 44.6135 49.7681 45.008 49.7681 45.4289V46.105C49.7681 46.6817 49.8675 47.1706 50.0664 47.5716C50.2686 47.9694 50.5487 48.2726 50.9066 48.4814C51.2646 48.6869 51.6805 48.7897 52.1545 48.7897C52.4627 48.7897 52.7411 48.7466 52.9897 48.6604C53.2416 48.5709 53.4587 48.4384 53.641 48.2627C53.8233 48.0837 53.9641 47.8617 54.0636 47.5965L55.1971 47.9147C55.0778 48.2992 54.8772 48.6372 54.5955 48.9289C54.3138 49.2172 53.9658 49.4426 53.5515 49.605C53.1372 49.7641 52.6715 49.8437 52.1545 49.8437Z" fill="#5F25B0"/>
</svg>
