<svg width="71" height="60" viewBox="0 0 71 60" fill="none" xmlns="http://www.w3.org/2000/svg">
<path d="M45.0062 12.7562C44.896 13.0344 44.8714 13.3392 44.9357 13.6314L45.7345 16.0989C45.7602 16.224 45.7536 16.3537 45.7151 16.4755C45.6767 16.5974 45.6078 16.7074 45.515 16.7951C45.4221 16.8829 45.3084 16.9454 45.1846 16.9769C45.0608 17.0084 44.931 17.0077 44.8075 16.9749L42.2477 16.2264C41.9719 16.1717 41.6863 16.1956 41.4235 16.2954C39.8219 17.0433 38.0077 17.2016 36.3009 16.7422C34.594 16.2828 33.1043 15.2354 32.0945 13.7847C31.0847 12.334 30.6197 10.5733 30.7815 8.81313C30.9434 7.053 31.7217 5.4066 32.9792 4.1644C34.2367 2.92221 35.8925 2.16405 37.6545 2.02369C39.4164 1.88334 41.1714 2.3698 42.6097 3.39726C44.0479 4.42472 45.0771 5.92715 45.5156 7.63946C45.954 9.35176 45.7737 11.1639 45.0062 12.7562Z" stroke="#656565" stroke-width="2" stroke-linecap="round" stroke-linejoin="round"/>
<path d="M28.2585 18.171C28.3321 18.3564 28.3484 18.5597 28.3055 18.7545L27.773 20.3995C27.7559 20.4829 27.7603 20.5693 27.7859 20.6506C27.8115 20.7318 27.8575 20.8051 27.9194 20.8636C27.9813 20.9221 28.0571 20.9638 28.1396 20.9848C28.2222 21.0058 28.3087 21.0053 28.391 20.9835L30.0975 20.4845C30.2814 20.448 30.4718 20.464 30.647 20.5305C31.7147 21.0291 32.9242 21.1346 34.0621 20.8283C35.2 20.5221 36.1932 19.8238 36.8664 18.8567C37.9893 17.2436 37.2627 18 37.2627 18C38.7498 17 35.5449 17.2605 33.7627 15.5C32.9244 14.6719 32.2627 14 31.2627 12C30.647 10.2259 30.7215 10.8152 29.7627 11.5002C28.8039 12.1852 28.2113 13.6183 27.919 14.7598C27.6267 15.9014 27.7469 17.1095 28.2585 18.171Z" stroke="#656565" stroke-width="2" stroke-linecap="round" stroke-linejoin="round"/>
<path d="M18.1672 50H16.8746L20.6132 39.8182H21.8859L25.6246 50H24.3319L21.2893 41.429H21.2098L18.1672 50ZM18.6444 46.0227H23.8547V47.1165H18.6444V46.0227ZM32.4605 44.0739L31.4065 44.3722C31.3402 44.1965 31.2425 44.0258 31.1132 43.8601C30.9872 43.6911 30.8149 43.5518 30.5961 43.4425C30.3774 43.3331 30.0973 43.2784 29.7559 43.2784C29.2886 43.2784 28.8992 43.3861 28.5876 43.6016C28.2794 43.8137 28.1253 44.0838 28.1253 44.4119C28.1253 44.7036 28.2313 44.9339 28.4434 45.103C28.6556 45.272 28.987 45.4129 29.4378 45.5256L30.5713 45.804C31.2541 45.9697 31.7628 46.2232 32.0976 46.5646C32.4323 46.9027 32.5997 47.3385 32.5997 47.8722C32.5997 48.3097 32.4738 48.7008 32.2219 49.0455C31.9733 49.3902 31.6253 49.6619 31.1778 49.8608C30.7304 50.0597 30.21 50.1591 29.6167 50.1591C28.8379 50.1591 28.1932 49.9901 27.6828 49.652C27.1724 49.3139 26.8492 48.8201 26.7133 48.1705L27.827 47.892C27.933 48.303 28.1336 48.6113 28.4285 48.8168C28.7268 49.0223 29.1163 49.125 29.5969 49.125C30.1437 49.125 30.5779 49.009 30.8994 48.777C31.2242 48.5417 31.3866 48.2599 31.3866 47.9318C31.3866 47.6667 31.2938 47.4446 31.1082 47.2656C30.9226 47.0833 30.6376 46.9474 30.2531 46.858L28.9804 46.5597C28.281 46.3939 27.7673 46.1371 27.4392 45.7891C27.1144 45.4377 26.952 44.9986 26.952 44.4716C26.952 44.0407 27.0729 43.6596 27.3149 43.3281C27.5602 42.9967 27.8933 42.7365 28.3142 42.5476C28.7384 42.3587 29.219 42.2642 29.7559 42.2642C30.5116 42.2642 31.1049 42.4299 31.5358 42.7614C31.97 43.0928 32.2782 43.5303 32.4605 44.0739ZM35.4596 47.2159L35.4397 45.7642H35.6784L39.0193 42.3636H40.471L36.9113 45.9631H36.8119L35.4596 47.2159ZM34.3659 50V39.8182H35.5392V50H34.3659ZM39.2181 50L36.2352 46.2216L37.0704 45.4062L40.7096 50H39.2181ZM46.4953 50H45.2027L48.9413 39.8182H50.214L53.9527 50H52.6601L49.6175 41.429H49.5379L46.4953 50ZM46.9726 46.0227H52.1828V47.1165H46.9726V46.0227ZM56.7716 39.8182V50H55.5386V39.8182H56.7716Z" fill="#656565"/>
</svg>
