<svg width="46" height="52" viewBox="0 0 46 52" fill="none" xmlns="http://www.w3.org/2000/svg">
<path d="M37.7473 6.90219C37.5444 6.90219 37.3415 6.85146 37.164 6.75001C32.2944 4.23914 28.0843 3.17393 23.0372 3.17393C18.0155 3.17393 13.2473 4.36596 8.91038 6.75001C8.30169 7.07972 7.54082 6.85146 7.18575 6.24277C6.85604 5.63407 7.0843 4.84784 7.69299 4.51813C12.4104 1.95654 17.5843 0.637695 23.0372 0.637695C28.4394 0.637695 33.1568 1.82972 38.3307 4.49277C38.9647 4.82248 39.193 5.58335 38.8633 6.19204C38.635 6.64856 38.2039 6.90219 37.7473 6.90219ZM1.45386 20.2174C1.20024 20.2174 0.946616 20.1413 0.718355 19.9891C0.135021 19.5833 0.00820944 18.7971 0.414007 18.2138C2.92488 14.6631 6.12053 11.8732 9.92488 9.9203C17.8886 5.81161 28.0843 5.78625 36.0734 9.89494C39.8778 11.8478 43.0734 14.6123 45.5843 18.1377C45.9901 18.6957 45.8633 19.5073 45.2799 19.9131C44.6966 20.3189 43.9104 20.192 43.5046 19.6087C41.222 16.4131 38.3307 13.9022 34.9068 12.1522C27.6278 8.42393 18.3198 8.42393 11.0662 12.1776C7.61691 13.9529 4.7256 16.4891 2.44299 19.6848C2.24009 20.0399 1.85966 20.2174 1.45386 20.2174ZM17.3053 50.8297C16.9756 50.8297 16.6459 50.7029 16.4176 50.4493C14.2111 48.2428 13.0191 46.8225 11.3198 43.7536C9.5698 40.6341 8.65676 36.8297 8.65676 32.7464C8.65676 25.2138 15.0988 19.0761 23.0118 19.0761C30.9249 19.0761 37.3669 25.2138 37.3669 32.7464C37.3669 33.4565 36.8089 34.0145 36.0988 34.0145C35.3886 34.0145 34.8307 33.4565 34.8307 32.7464C34.8307 26.6087 29.5299 21.6123 23.0118 21.6123C16.4937 21.6123 11.193 26.6087 11.193 32.7464C11.193 36.3986 12.0046 39.7718 13.5517 42.5109C15.1749 45.4275 16.2908 46.6703 18.2437 48.6486C18.7256 49.1558 18.7256 49.942 18.2437 50.4493C17.9647 50.7029 17.635 50.8297 17.3053 50.8297ZM35.4901 46.1377C32.472 46.1377 29.8089 45.3768 27.6278 43.8804C23.8488 41.3189 21.5915 37.1594 21.5915 32.7464C21.5915 32.0362 22.1495 31.4783 22.8597 31.4783C23.5698 31.4783 24.1278 32.0362 24.1278 32.7464C24.1278 36.3225 25.9539 39.6957 29.0481 41.7754C30.8488 42.9928 32.9539 43.5761 35.4901 43.5761C36.0988 43.5761 37.1133 43.5 38.1278 43.3225C38.8126 43.1957 39.472 43.6522 39.5988 44.3623C39.7256 45.0471 39.2691 45.7065 38.5589 45.8333C37.1133 46.1123 35.8452 46.1377 35.4901 46.1377ZM30.3923 51.3623C30.2908 51.3623 30.164 51.337 30.0626 51.3116C26.0299 50.1957 23.3923 48.6993 20.6278 45.9855C17.077 42.4602 15.1242 37.7681 15.1242 32.7464C15.1242 28.6377 18.6242 25.2899 22.9357 25.2899C27.2473 25.2899 30.7473 28.6377 30.7473 32.7464C30.7473 35.4602 33.106 37.6667 36.0227 37.6667C38.9394 37.6667 41.2981 35.4602 41.2981 32.7464C41.2981 23.1848 33.0553 15.4239 22.9104 15.4239C15.7075 15.4239 9.11328 19.4312 6.14589 25.6449C5.15676 27.6993 4.64951 30.1087 4.64951 32.7464C4.64951 34.7247 4.82705 37.8442 6.34879 41.9022C6.60241 42.5616 6.2727 43.2971 5.61328 43.5254C4.95386 43.779 4.21835 43.4239 3.99009 42.7899C2.74734 39.4674 2.13864 36.1703 2.13864 32.7464C2.13864 29.7029 2.72198 26.9384 3.86328 24.529C7.23647 17.4529 14.7184 12.8623 22.9104 12.8623C34.4502 12.8623 43.8343 21.7645 43.8343 32.721C43.8343 36.8297 40.3343 40.1775 36.0227 40.1775C31.7111 40.1775 28.2111 36.8297 28.2111 32.721C28.2111 30.0073 25.8524 27.8007 22.9357 27.8007C20.0191 27.8007 17.6604 30.0073 17.6604 32.721C17.6604 37.058 19.3343 41.116 22.4031 44.1594C24.8126 46.5435 27.1205 47.8623 30.6966 48.8515C31.3814 49.029 31.7618 49.7391 31.5843 50.3986C31.4575 50.9819 30.9249 51.3623 30.3923 51.3623Z" fill="black"/>
</svg>
