<svg width="24" height="24" viewBox="0 0 24 24" fill="none" xmlns="http://www.w3.org/2000/svg">
<path d="M4 11C3.44772 11 3 11.4477 3 12C3 12.5523 3.44772 13 4 13L4 12L4 11ZM20 13C20.5523 13 21 12.5523 21 12C21 11.4477 20.5523 11 20 11V12V13ZM16.7039 6.28975C16.3117 5.90097 15.6785 5.90379 15.2897 6.29606C14.901 6.68832 14.9038 7.32148 15.2961 7.71025L16 7L16.7039 6.28975ZM17.763 8.74731L17.059 9.45756V9.45756L17.763 8.74731ZM17.763 15.2527L18.4669 15.9629L17.763 15.2527ZM15.2961 16.2897C14.9038 16.6785 14.901 17.3117 15.2897 17.7039C15.6785 18.0962 16.3117 18.099 16.7039 17.7103L16 17L15.2961 16.2897ZM19.9801 11.6867L20.9721 11.5602V11.5602L19.9801 11.6867ZM19.9801 12.3133L20.9721 12.4398V12.4398L19.9801 12.3133ZM4 12L4 13L20 13V12V11L4 11L4 12ZM16 7L15.2961 7.71025L17.059 9.45756L17.763 8.74731L18.4669 8.03705L16.7039 6.28975L16 7ZM17.763 15.2527L17.059 14.5424L15.2961 16.2897L16 17L16.7039 17.7103L18.4669 15.9629L17.763 15.2527ZM17.763 8.74731L17.059 9.45756C17.7787 10.1708 18.2574 10.6474 18.5785 11.0472C18.8869 11.4313 18.9669 11.6465 18.9881 11.8131L19.9801 11.6867L20.9721 11.5602C20.8851 10.8776 20.5594 10.3198 20.1379 9.79492C19.729 9.28576 19.1532 8.71722 18.4669 8.03705L17.763 8.74731ZM17.763 15.2527L18.4669 15.9629C19.1532 15.2828 19.729 14.7142 20.1379 14.2051C20.5594 13.6802 20.8851 13.1224 20.9721 12.4398L19.9801 12.3133L18.9881 12.1869C18.9669 12.3535 18.8869 12.5687 18.5785 12.9528C18.2574 13.3526 17.7787 13.8292 17.059 14.5424L17.763 15.2527ZM19.9801 11.6867L18.9881 11.8131C19.004 11.9372 19.004 12.0628 18.9881 12.1869L19.9801 12.3133L20.9721 12.4398C21.0093 12.1478 21.0093 11.8522 20.9721 11.5602L19.9801 11.6867Z" fill="#250E45"/>
</svg>
