<svg width="20" height="20" viewBox="0 0 20 20" fill="none" xmlns="http://www.w3.org/2000/svg">
<mask id="path-1-inside-1_2482_9006" fill="white">
<path d="M1.59315 7.17234C2.11558 7.17234 2.39673 6.88091 2.39673 6.34863V3.97863C2.39673 2.93377 2.95901 2.40149 3.96358 2.40149H6.39444C6.91687 2.40149 7.20787 2.11006 7.20787 1.58763C7.20787 1.07549 6.91644 0.784058 6.39444 0.784058H3.93358C1.8443 0.784058 0.779297 1.81863 0.779297 3.88777V6.34906C0.779297 6.88134 1.07073 7.17234 1.59315 7.17234ZM18.4077 7.17234C18.94 7.17234 19.2216 6.88091 19.2216 6.34863V3.88777C19.2216 1.81863 18.1767 0.784058 16.0673 0.784058H13.6163C13.084 0.784058 12.793 1.07549 12.793 1.58763C12.793 2.11006 13.0844 2.40149 13.6163 2.40149H16.0472C17.0316 2.40149 17.6042 2.93377 17.6042 3.97863V6.34863C17.6042 6.88134 17.8956 7.17234 18.4077 7.17234ZM9.56844 9.13091V5.62563C9.56844 5.38477 9.37773 5.18377 9.12658 5.18377H5.63115C5.38001 5.18377 5.18887 5.38434 5.18887 5.62563V9.13134C5.18887 9.3722 5.38001 9.56334 5.63115 9.56334H9.12658C9.37773 9.56334 9.56844 9.37177 9.56844 9.13091ZM11.3063 6.05806H13.9377V8.68949H11.3063V6.05806ZM13.1749 7.92663V6.8312H12.0799V7.9262L13.1749 7.92663ZM7.9313 7.92663V6.8312H6.82644V7.9262L7.9313 7.92663ZM6.06273 11.3115H8.69458V13.9429H6.06315L6.06273 11.3115ZM14.6813 11.6526V10.5581H13.5863V11.6531L14.6813 11.6526ZM11.6577 11.6526V10.5581H10.5627V11.6531L11.6577 11.6526ZM7.9313 13.1698V12.0743H6.82644V13.1689L7.9313 13.1698ZM13.1744 13.1698V12.0743H12.0696V13.1689L13.1744 13.1698ZM13.6163 19.2165H16.0677C18.1767 19.2165 19.2216 18.1716 19.2216 16.1025V13.6515C19.2216 13.1188 18.9302 12.8278 18.4077 12.8278C17.8853 12.8278 17.6042 13.1192 17.6042 13.6515V16.0215C17.6042 17.0663 17.0316 17.5986 16.0472 17.5986H13.6163C13.084 17.5986 12.793 17.8901 12.793 18.4125C12.793 18.9246 13.0844 19.2165 13.6163 19.2165ZM3.93358 19.2161H6.39444C6.91687 19.2161 7.20787 18.9246 7.20787 18.4125C7.20787 17.8901 6.91644 17.5991 6.39444 17.5991H3.96358C2.95901 17.5991 2.39673 17.0663 2.39673 16.0219V13.6515C2.39673 13.1188 2.1053 12.8278 1.59315 12.8278C1.06087 12.8278 0.779297 13.1192 0.779297 13.6515V16.1021C0.779297 18.1815 1.8443 19.2161 3.93358 19.2161ZM11.6577 14.6861V13.5911H10.5627V14.6861H11.6577ZM14.6813 14.6861V13.5911H13.5863V14.6861H14.6813ZM14.812 9.13134V5.62563C14.812 5.38477 14.6209 5.18377 14.3697 5.18377H10.8747C10.6236 5.18377 10.4329 5.38434 10.4329 5.62563V9.13134C10.4329 9.3722 10.6236 9.56334 10.8743 9.56334H14.3702C14.6213 9.56334 14.812 9.3722 14.812 9.13134ZM6.06273 6.0572H8.69458V8.68863H6.06315L6.06273 6.0572ZM9.56844 14.3741V10.8683C9.56844 10.6275 9.37773 10.4368 9.12658 10.4368H5.63115C5.38001 10.4368 5.18887 10.6275 5.18887 10.8683V14.3741C5.18887 14.6153 5.38001 14.8159 5.63115 14.8159H9.12658C9.37773 14.8159 9.56844 14.6153 9.56844 14.3741Z"/>
</mask>
<path d="M1.59315 7.17234C2.11558 7.17234 2.39673 6.88091 2.39673 6.34863V3.97863C2.39673 2.93377 2.95901 2.40149 3.96358 2.40149H6.39444C6.91687 2.40149 7.20787 2.11006 7.20787 1.58763C7.20787 1.07549 6.91644 0.784058 6.39444 0.784058H3.93358C1.8443 0.784058 0.779297 1.81863 0.779297 3.88777V6.34906C0.779297 6.88134 1.07073 7.17234 1.59315 7.17234ZM18.4077 7.17234C18.94 7.17234 19.2216 6.88091 19.2216 6.34863V3.88777C19.2216 1.81863 18.1767 0.784058 16.0673 0.784058H13.6163C13.084 0.784058 12.793 1.07549 12.793 1.58763C12.793 2.11006 13.0844 2.40149 13.6163 2.40149H16.0472C17.0316 2.40149 17.6042 2.93377 17.6042 3.97863V6.34863C17.6042 6.88134 17.8956 7.17234 18.4077 7.17234ZM9.56844 9.13091V5.62563C9.56844 5.38477 9.37773 5.18377 9.12658 5.18377H5.63115C5.38001 5.18377 5.18887 5.38434 5.18887 5.62563V9.13134C5.18887 9.3722 5.38001 9.56334 5.63115 9.56334H9.12658C9.37773 9.56334 9.56844 9.37177 9.56844 9.13091ZM11.3063 6.05806H13.9377V8.68949H11.3063V6.05806ZM13.1749 7.92663V6.8312H12.0799V7.9262L13.1749 7.92663ZM7.9313 7.92663V6.8312H6.82644V7.9262L7.9313 7.92663ZM6.06273 11.3115H8.69458V13.9429H6.06315L6.06273 11.3115ZM14.6813 11.6526V10.5581H13.5863V11.6531L14.6813 11.6526ZM11.6577 11.6526V10.5581H10.5627V11.6531L11.6577 11.6526ZM7.9313 13.1698V12.0743H6.82644V13.1689L7.9313 13.1698ZM13.1744 13.1698V12.0743H12.0696V13.1689L13.1744 13.1698ZM13.6163 19.2165H16.0677C18.1767 19.2165 19.2216 18.1716 19.2216 16.1025V13.6515C19.2216 13.1188 18.9302 12.8278 18.4077 12.8278C17.8853 12.8278 17.6042 13.1192 17.6042 13.6515V16.0215C17.6042 17.0663 17.0316 17.5986 16.0472 17.5986H13.6163C13.084 17.5986 12.793 17.8901 12.793 18.4125C12.793 18.9246 13.0844 19.2165 13.6163 19.2165ZM3.93358 19.2161H6.39444C6.91687 19.2161 7.20787 18.9246 7.20787 18.4125C7.20787 17.8901 6.91644 17.5991 6.39444 17.5991H3.96358C2.95901 17.5991 2.39673 17.0663 2.39673 16.0219V13.6515C2.39673 13.1188 2.1053 12.8278 1.59315 12.8278C1.06087 12.8278 0.779297 13.1192 0.779297 13.6515V16.1021C0.779297 18.1815 1.8443 19.2161 3.93358 19.2161ZM11.6577 14.6861V13.5911H10.5627V14.6861H11.6577ZM14.6813 14.6861V13.5911H13.5863V14.6861H14.6813ZM14.812 9.13134V5.62563C14.812 5.38477 14.6209 5.18377 14.3697 5.18377H10.8747C10.6236 5.18377 10.4329 5.38434 10.4329 5.62563V9.13134C10.4329 9.3722 10.6236 9.56334 10.8743 9.56334H14.3702C14.6213 9.56334 14.812 9.3722 14.812 9.13134ZM6.06273 6.0572H8.69458V8.68863H6.06315L6.06273 6.0572ZM9.56844 14.3741V10.8683C9.56844 10.6275 9.37773 10.4368 9.12658 10.4368H5.63115C5.38001 10.4368 5.18887 10.6275 5.18887 10.8683V14.3741C5.18887 14.6153 5.38001 14.8159 5.63115 14.8159H9.12658C9.37773 14.8159 9.56844 14.6153 9.56844 14.3741Z" fill="white" stroke="white" stroke-width="0.857143" mask="url(#path-1-inside-1_2482_9006)"/>
</svg>
